<svg width="19" height="17" viewBox="0 0 19 17" fill="none" xmlns="http://www.w3.org/2000/svg">
<path d="M7.05183 14.7742L1.49432 16.2984L3.05043 10.8548L13.2268 0.935491C13.3419 0.820274 13.4792 0.728728 13.6309 0.666226C13.7825 0.603725 13.9454 0.571529 14.1099 0.571529C14.2744 0.571529 14.4372 0.603725 14.5889 0.666226C14.7405 0.728728 14.8779 0.820274 14.9929 0.935491L17.1789 3.08871C17.2946 3.20117 17.3865 3.33496 17.4492 3.48237C17.5119 3.62978 17.5442 3.78789 17.5442 3.94758C17.5442 4.10728 17.5119 4.26539 17.4492 4.4128C17.3865 4.56021 17.2946 4.694 17.1789 4.80645L7.05183 14.7742Z" stroke="#6C6C6C" stroke-width="1.07143" stroke-linecap="round" stroke-linejoin="round"/>
</svg>
