<svg width="15" height="13" viewBox="0 0 15 13" fill="none" xmlns="http://www.w3.org/2000/svg">
<path d="M6.96411 12.3928L10.3284 4.53925C10.3601 4.4631 10.4137 4.39804 10.4823 4.35228C10.551 4.30652 10.6316 4.2821 10.7141 4.2821C10.7966 4.2821 10.8773 4.30652 10.9459 4.35228C11.0145 4.39804 11.0681 4.4631 11.0998 4.53925L14.4641 12.3928" stroke="#6C6C6C" stroke-width="1.07143" stroke-linecap="round" stroke-linejoin="round"/>
<path d="M8.4751 8.86792H12.9537" stroke="#6C6C6C" stroke-width="1.07143" stroke-linecap="round" stroke-linejoin="round"/>
<path d="M0.535889 12.3928L5.43232 0.971418C5.48492 0.87531 5.56241 0.795123 5.65667 0.739264C5.75092 0.683405 5.85847 0.653931 5.96803 0.653931C6.07759 0.653931 6.18514 0.683405 6.27939 0.739264C6.37365 0.795123 6.45114 0.87531 6.50375 0.971418L7.50017 3.22142" stroke="#6C6C6C" stroke-width="1.07143" stroke-linecap="round" stroke-linejoin="round"/>
<path d="M2.73218 7.27148H5.35718" stroke="#6C6C6C" stroke-width="1.07143" stroke-linecap="round" stroke-linejoin="round"/>
</svg>
