<svg width="23" height="21" viewBox="0 0 23 21" fill="none" xmlns="http://www.w3.org/2000/svg">
<path d="M11.0729 19.3544L16.0258 7.05603C16.0725 6.93678 16.1514 6.83491 16.2524 6.76325C16.3535 6.69159 16.4722 6.65335 16.5937 6.65335C16.7151 6.65335 16.8339 6.69159 16.9349 6.76325C17.036 6.83491 17.1148 6.93678 17.1615 7.05603L22.1144 19.3544" stroke="#72BDF2" stroke-width="1.67781" stroke-linecap="round" stroke-linejoin="round"/>
<path d="M13.2973 13.8344H19.8907" stroke="#72BDF2" stroke-width="1.67781" stroke-linecap="round" stroke-linejoin="round"/>
<path d="M1.60931 19.3544L8.81783 1.46893C8.89527 1.31843 9.00935 1.19286 9.14811 1.10538C9.28688 1.01791 9.4452 0.971756 9.6065 0.971756C9.7678 0.971756 9.92613 1.01791 10.0649 1.10538C10.2037 1.19286 10.3177 1.31843 10.3952 1.46893L11.8621 4.99233" stroke="#72BDF2" stroke-width="1.67781" stroke-linecap="round" stroke-linejoin="round"/>
<path d="M4.84277 11.3346H8.70728" stroke="#72BDF2" stroke-width="1.67781" stroke-linecap="round" stroke-linejoin="round"/>
</svg>
